PathFileType	4	(X/Y/Z)	E:\Qualisys_Data\Carbon_Farble_Plate\Data\Amateur_Runner\S2\T3\S2T3V22_c3d.trc
DataRate	CameraRate	NumFrames	NumMarkers	Units	OrigDataRate	OrigDataStartFrame	OrigNumFrames
200.000000	200.000000	4	39	mm	200.000000	39	316
Frame#	Time	LSHO			RSHO			LICST			RICST			LASIS			LHEEL			RASIS			LTROC			RTROC			SACR			LTH1			LSK4			LTH2			LTH3			RHM5			LSK2			LTH4			RTH1			LTOE			RTH2			RTH3			RTH4			LLEP			RLEP			LSK1			LSK3			RSK1			LHM5			RSK2			LFT1			RSK3			RSK4			LLME			RLME			RTOE			RHEEL			RFT1			RFT2			LFT2			
		X1	Y1	Z1	X2	Y2	Z2	X3	Y3	Z3	X4	Y4	Z4	X5	Y5	Z5	X6	Y6	Z6	X7	Y7	Z7	X8	Y8	Z8	X9	Y9	Z9	X10	Y10	Z10	X11	Y11	Z11	X12	Y12	Z12	X13	Y13	Z13	X14	Y14	Z14	X15	Y15	Z15	X16	Y16	Z16	X17	Y17	Z17	X18	Y18	Z18	X19	Y19	Z19	X20	Y20	Z20	X21	Y21	Z21	X22	Y22	Z22	X23	Y23	Z23	X24	Y24	Z24	X25	Y25	Z25	X26	Y26	Z26	X27	Y27	Z27	X28	Y28	Z28	X29	Y29	Z29	X30	Y30	Z30	X31	Y31	Z31	X32	Y32	Z32	X33	Y33	Z33	X34	Y34	Z34	X35	Y35	Z35	X36	Y36	Z36	X37	Y37	Z37	X38	Y38	Z38	X39	Y39	Z39	

40	0.195	-2602.06201171875	1435.803833007812	-394.4433288574219	-2580.2587890625	1397.476928710938	-80.1559829711914	-2690.814453125	971.380615234375	-402.4248657226562	-2694.11962890625	958.66357421875	-98.09071350097656	-2633.369873046875	922.3983764648438	-381.9328918457031	-2899.04736328125	459.345947265625	-291.2562255859375	-2631.3935546875	913.6889038085938	-118.7715682983398	-2754.644287109375	846.1673583984375	-405.1492919921875	-2781.393310546875	862.5718994140625	-101.7593307495117	-2776.665283203125	1014.000915527344	-250.8031616210938	-2516.939208984375	675.5556030273438	-406.5631408691406	-2713.1669921875	496.4769287109375	-378.5786437988281	-2590.428466796875	634.0353393554688	-418.0284118652344	-2469.06494140625	585.752197265625	-389.2080993652344	-2832.326904296875	85.3679428100586	-125.1809768676758	-2617.20068359375	521.1638793945312	-396.2242126464844	-2545.479248046875	546.4939575195312	-390.1803588867188	-2649.689208984375	589.4874267578125	-94.82410430908205	-2822.29296875	226.7346343994141	-333.6199340820312	-2727.326904296875	590.6685180664062	-96.16015625	-2650.772705078125	490.8759155273438	-121.2285690307617	-2731.22607421875	496.8619995117188	-118.6347808837891	-2497.049560546875	523.6375122070312	-393.4826049804688	-2700.4638671875	460.2550659179688	-115.484619140625	-2595.337646484375	445.2187194824219	-387.1910095214844	-2692.068603515625	419.7329406738281	-374.6794128417969	-2724.498046875	338.0279846191406	-121.7190551757812	-2862.33203125	282.0863342285156	-385.466552734375	-2788.566650390625	384.1637878417969	-102.4962692260742	-2918.917724609375	436.9518737792969	-261.9411926269531	-2786.9208984375	256.7006225585938	-134.7985229492188	-2847.9775390625	304.2878112792969	-115.7968597412109	-2867.044921875	411.6687316894531	-349.8505554199219	-2933.324462890625	141.2200622558594	-151.2652587890625	-2769.594482421875	79.45970153808594	-184.1742553710938	-3008.52392578125	133.6443328857422	-207.3546752929688	-3001.234619140625	101.0589752197266	-232.5258331298828	-3009.813232421875	111.1167221069336	-182.7294311523438	-2929.29931640625	446.8716125488281	-313.5788879394531
41	0.2	-2585.793701171875	1440.672729492188	-395.5653686523438	-2558.705810546875	1402.683959960938	-81.93079376220703	-2670.912353515625	976.9658813476562	-403.0591735839844	-2671.400390625	962.6615600585938	-98.3863525390625	-2612.529296875	927.76513671875	-382.0361022949219	-2870.052001953125	448.3361206054688	-292.2387084960938	-2609.457763671875	917.0093383789062	-119.6432571411133	-2732.71337890625	851.5477905273438	-406.103515625	-2760.689697265625	866.6756591796875	-102.9396133422852	-2755.631103515625	1017.999389648438	-250.2024230957031	-2493.76318359375	685.4321899414062	-406.3218994140625	-2684.8798828125	494.0000610351562	-379.8498840332031	-2565.782958984375	642.4110717773438	-418.1938171386719	-2443.75732421875	596.8946533203125	-388.6334838867188	-2831.87548828125	85.84579467773438	-125.2310256958008	-2590.800537109375	524.3021240234375	-395.94677734375	-2518.1337890625	555.775146484375	-389.8055419921875	-2637.78173828125	592.4111328125	-95.44189453125	-2779.580810546875	220.4244842529297	-335.6048583984375	-2714.508056640625	595.2371826171875	-95.75801849365234	-2642.670166015625	493.5551452636719	-121.5020370483398	-2723.181884765625	501.43017578125	-118.9613494873047	-2470.08642578125	533.4949340820312	-392.8365173339844	-2693.16796875	464.2935180664062	-115.5156860351562	-2565.2734375	448.8762512207031	-386.2055053710938	-2660.49365234375	419.1773071289062	-374.5180969238281	-2720.5712890625	341.4880065917969	-120.992561340332	-2822.25634765625	274.1191101074219	-386.4305114746094	-2784.443115234375	388.7689208984375	-102.9842376708984	-2888.4794921875	425.2791442871094	-262.8283386230469	-2783.503173828125	261.4172668457031	-134.2375640869141	-2844.0751953125	309.5035400390625	-116.7703475952148	-2834.921630859375	402.5606994628906	-350.1339111328125	-2929.24267578125	145.7862854003906	-150.6503601074219	-2768.99267578125	78.94800567626953	-184.0046691894531	-3005.012939453125	140.1885070800781	-206.9570770263672	-2999.059326171875	108.5383071899414	-232.5328216552734	-3006.822998046875	117.0363616943359	-181.9332122802734	-2899.068115234375	434.3248596191406	-314.3024597167969
42	0.205	-2568.51171875	1445.663818359375	-396.3126220703125	-2537.61767578125	1408.65087890625	-83.92892456054688	-2650.19677734375	982.7371215820312	-403.0897827148438	-2649.32421875	966.5734252929688	-99.1240234375	-2592.355224609375	933.3864135742188	-382.6874084472656	-2840.497802734375	437.3203430175781	-292.2105407714844	-2587.605712890625	920.4229125976562	-120.3501815795898	-2711.14404296875	857.1779174804688	-407.7935180664062	-2740.259033203125	870.9070434570312	-103.5565948486328	-2734.201904296875	1022.416137695312	-249.1522521972656	-2470.490966796875	695.27294921875	-406.5830078125	-2656.860595703125	491.7066650390625	-378.9264831542969	-2541.148681640625	650.3054809570312	-418.0350952148438	-2418.8251953125	607.4251708984375	-388.04931640625	-2830.600341796875	85.84892272949219	-124.8105545043945	-2565.24609375	527.323974609375	-396.1766967773438	-2492.37841796875	564.7905883789062	-390.1246337890625	-2624.63916015625	595.3245849609375	-96.63792419433594	-2731.523681640625	216.3057250976562	-336.9266967773438	-2701.894287109375	601.53125	-96.6858367919922	-2633.9287109375	496.3287353515625	-121.6558990478516	-2713.547607421875	507.7393798828125	-118.7981643676758	-2445.40185546875	544.6497802734375	-394.1856689453125	-2686.803955078125	468.6378173828125	-115.4472045898438	-2535.000732421875	452.1134033203125	-385.81787109375	-2629.565185546875	418.7332153320312	-374.6203308105469	-2715.552001953125	346.2284545898438	-120.116096496582	-2782.727294921875	266.296142578125	-386.8859252929688	-2779.239013671875	395.0313110351562	-103.9330749511719	-2857.445556640625	413.4245300292969	-262.5089721679688	-2778.906005859375	266.5342712402344	-132.9188232421875	-2839.11669921875	315.6651611328125	-116.3714981079102	-2803.216064453125	394.0748291015625	-351.0246887207031	-2924.769287109375	151.0977783203125	-149.799560546875	-2768.471435546875	77.95033264160156	-183.8679504394531	-3001.667724609375	146.7893218994141	-206.2821044921875	-2996.154296875	115.5844497680664	-232.5387420654297	-3009.58154296875	123.4847183227539	-182.9862518310547	-2868.923828125	421.9125671386719	-315.2439880371094
43	0.21	-2551.34521484375	1451.324584960938	-397.3535461425781	-2516.569580078125	1414.538818359375	-86.07640838623047	-2629.305419921875	988.5729370117188	-403.8534851074219	-2623.888427734375	970.0697021484376	-98.80430603027344	-2571.2109375	939.1332397460938	-382.9634704589844	-2810.451904296875	426.0582580566406	-292.6485595703125	-2564.827880859375	923.5730590820312	-120.8107452392578	-2688.79150390625	863.2711791992188	-408.9165344238281	-2719.816650390625	875.79736328125	-105.3241729736328	-2712.834228515625	1026.490600585938	-248.4622192382812	-2446.5712890625	704.3523559570312	-406.6025695800781	-2629.71630859375	489.9633483886719	-379.5330810546875	-2517.04345703125	658.5663452148438	-418.6953735351562	-2393.77587890625	617.8603515625	-387.65234375	-2828.93505859375	87.20542907714844	-124.5848083496094	-2539.314697265625	529.9363403320312	-396.0981140136719	-2467.2041015625	573.8861083984375	-391.1651306152344	-2611.2109375	598.8306884765625	-97.67097473144533	-2689.152099609375	211.6241149902344	-337.2108764648438	-2689.044677734375	608.1362915039062	-97.6295928955078	-2625.483154296875	500.4371337890625	-122.3706588745117	-2704.22216796875	514.3678588867188	-119.0560760498047	-2419.85400390625	554.159423828125	-394.0043029785156	-2679.472900390625	474.2580871582031	-115.0171356201172	-2507.01611328125	458.2968444824219	-386.8836059570312	-2597.448974609375	417.3014526367188	-374.9338684082031	-2709.654296875	352.7401123046875	-119.6015319824219	-2743.0546875	258.7325744628906	-387.32568359375	-2772.73046875	400.9601135253906	-103.2639007568359	-2825.965087890625	400.7711486816406	-264.3251037597656	-2773.2333984375	273.2188415527344	-131.8088226318359	-2833.9443359375	322.4768676757812	-115.8140640258789	-2770.28857421875	384.8986511230469	-351.5395202636719	-2920.646728515625	157.1401214599609	-149.3356475830078	-2767.666259765625	77.91332244873047	-183.6370086669922	-2997.28369140625	153.7128753662109	-205.4697265625	-2992.562255859375	122.0095596313477	-231.9982757568359	-3005.80517578125	130.5998840332031	-183.1562042236328	-2837.458984375	407.9204406738281	-314.9382019042969
